# xmcd
#
# Track frame offsets:
#	150
#	4800
#	15450
#	21300
#	35850
#	40125
#	52337
#	57857
#	71625
#	76762
#	95262
#	102900
#	117645
#	121650
#	143200
#	144750
#	156250
#	159875
#	172275
#	175000
#	179025
#	181950
#	190087
#	193650
#	206362
#	210700
#	225062
#	229825
#	242447
#	247287
#	256520
#	260550
#	272275
#	276002
#	295800
#	299525
#
# Disc length: 4144 seconds
#
# Revision: 0
# Processed by: cddbd v1.5.2PL0 Copyright (c) Steve Scherf et al.
# Submitted via: EasyCDDAExtractor 4.6.0.1
#
DISCID=01102e24
DTITLE=Sampler - Aussie Songs
DYEAR=1900
DGENRE=
TTITLE0=Our Aboriginal Heritage
TTITLE1=Proud to be Aborigine
TTITLE2=The early Convict Days
TTITLE3=Botany Bay
TTITLE4=The long Sea Journey to Australia
TTITLE5=Bound for South Australia
TTITLE6=The Discovery of Gold
TTITLE7=With my Swag upon my Shoulder
TTITLE8=The Bushrangers
TTITLE9=The wild Colonial Boy
TTITLE10=The Sheep Industry and the Shearers
TTITLE11=Click go the Shears
TTITLE12=The first World War
TTITLE13=And the Band played Waltzing Matilda
TTITLE14=The great Australian Dream
TTITLE15=Give me a Home among the Gum Trees
TTITLE16=Hazards of an outside Toilet
TTITLE17=Red-Back on the Toilet Seat
TTITLE18=The first singing Commercial
TTITLE19=I like Aeroplane Jelly
TTITLE20=The second World War
TTITLE21=Road to Gundagai
TTITLE22=Australia's first Gold Record
TTITLE23=The Pub with no Beer
TTITLE24=Post-War Migration to Australia
TTITLE25=Shaddup your Face
TTITLE26=Australia's most popular Song
TTITLE27=Waltzing Matilda
TTITLE28=The National Anthem
TTITLE29=Advance Australia Fair
TTITLE30=The performing Arts
TTITLE31=Tie me Kangaroo down Sport
TTITLE32=The War in Vietnam
TTITLE33=I was only Nineteen
TTITLE34=Australia - the lucky Country
TTITLE35=I still call Australia Home
EXTD=
EXTT0=
EXTT1=
EXTT2=
EXTT3=
EXTT4=
EXTT5=
EXTT6=
EXTT7=
EXTT8=
EXTT9=
EXTT10=
EXTT11=
EXTT12=
EXTT13=
EXTT14=
EXTT15=
EXTT16=
EXTT17=
EXTT18=
EXTT19=
EXTT20=
EXTT21=
EXTT22=
EXTT23=
EXTT24=
EXTT25=
EXTT26=
EXTT27=
EXTT28=
EXTT29=
EXTT30=
EXTT31=
EXTT32=
EXTT33=
EXTT34=
EXTT35=
PLAYORDER=
